<svg xmlns="http://www.w3.org/2000/svg" viewBox="0 0 48 48">
  <defs>
    <linearGradient id="cppGrad" x1="0%" y1="0%" x2="100%" y2="100%">
      <stop offset="0%" style="stop-color:#00599c;stop-opacity:1" />
      <stop offset="100%" style="stop-color:#004482;stop-opacity:1" />
    </linearGradient>
  </defs>
  <circle cx="24" cy="24" r="22" fill="url(#cppGrad)"/>
  <path fill="#ffffff" d="M24,10C16.3,10 10,16.3 10,24C10,31.7 16.3,38 24,38C31.7,38 38,31.7 38,24C38,16.3 31.7,10 24,10M15,20H17V28H15V20M19,20H21V28H19V20M23,20H25V28H23V20M27,20H29V28H27V20M31,20H33V28H31V20"/>
</svg>
