<svg xmlns="http://www.w3.org/2000/svg" viewBox="0 0 48 48">
  <defs>
    <linearGradient id="javaGrad" x1="0%" y1="0%" x2="100%" y2="100%">
      <stop offset="0%" style="stop-color:#f89820;stop-opacity:1" />
      <stop offset="100%" style="stop-color:#e34c26;stop-opacity:1" />
    </linearGradient>
  </defs>
  <circle cx="24" cy="24" r="22" fill="url(#javaGrad)"/>
  <path fill="#ffffff" d="M18,30C16.9,30 16,30.9 16,32C16,33.1 16.9,34 18,34C19.1,34 20,33.1 20,32C20,30.9 19.1,30 18,30M24,16C20.7,16 18,18.7 18,22C18,25.3 20.7,28 24,28C27.3,28 30,25.3 30,22C30,18.7 27.3,16 24,16M30,30C28.9,30 28,30.9 28,32C28,33.1 28.9,34 30,34C31.1,34 32,33.1 32,32C32,30.9 31.1,30 30,30Z"/>
</svg>
